# xmcd
# Track frame offsets:
# 150
# 14209
# 26669
# 37765
# 49645
# 61104
# 74208
# 87677
# 96252
# 108066
# 125001
# 137631
#
# Disc length: 1990 seconds
# Revision: 0
# Processed by: cddbd v1.5.1PL0 Copyright (c) Steve Scherf et al.
# Submitted via: VisiTrax 2.9.9.209 - For more info visit www.synapsa.com
#
DISCID=a907c40c
DTITLE=Dave Dudley - American Trucker
DYEAR=2001
DGENRE=Country
TTITLE0=You ain't gonna truck with us
TTITLE1=Freedom of the road
TTITLE2=Back home
TTITLE3=I'm proud to say I drive a truck
TTITLE4=I'm going home
TTITLE5=Don't mess with U.S. Truckers
TTITLE6=Wandering truck drivin' man
TTITLE7=Big wheelin son of a gun
TTITLE8=I want a woman with a handle
TTITLE9=Sending the old man home
TTITLE10=Me and ole C.B.
TTITLE11=Six days on the road
EXTD=
EXTT0=
EXTT1=
EXTT2=
EXTT3=
EXTT4=
EXTT5=
EXTT6=
EXTT7=
EXTT8=
EXTT9=
EXTT10=
EXTT11=
PLAYORDER=
